<svg width="6" height="10" viewBox="0 0 6 10" fill="none" xmlns="http://www.w3.org/2000/svg">
<path d="M0.601047 0.419189C0.744846 0.426758 0.841281 0.523193 0.941135 0.611084C2.34763 1.84692 3.75412 3.08301 5.16062 4.31934C5.27927 4.42383 5.40036 4.52417 5.51731 4.63159C5.77463 4.86938 5.77195 5.14673 5.50608 5.3811C4.61277 6.16821 3.71775 6.95166 2.82346 7.73779C2.19895 8.28711 1.57419 8.8374 0.948215 9.38525C0.873752 9.4502 0.795139 9.5166 0.710666 9.55469C0.549045 9.62573 0.415012 9.54834 0.33884 9.37427C0.245578 9.16187 0.299045 8.97681 0.458225 8.83667C0.977268 8.38086 1.49631 7.92554 2.0156 7.47021C2.87839 6.71191 3.74094 5.95386 4.60373 5.19556C4.82639 4.99927 4.82566 4.99927 4.59421 4.79517C3.22434 3.59277 1.8552 2.38965 0.484592 1.18896C0.363254 1.08276 0.28049 0.960449 0.299533 0.770264C0.315158 0.619141 0.382053 0.51123 0.500461 0.45459C0.535862 0.4375 0.574436 0.428711 0.601047 0.419189Z" fill="#E27E1C"/>
</svg>
