<svg width="14" height="17" viewBox="0 0 14 17" fill="none" xmlns="http://www.w3.org/2000/svg">
<path d="M6.84842 16.5795C5.17263 16.5795 3.4971 16.5804 1.82083 16.5791C0.94949 16.5783 0.232937 16.0019 0.0417752 15.1533C0.0117459 15.0214 0.000759549 14.8873 0.000759549 14.7522C0.000759549 12.4903 -0.000949436 10.2284 0.000759549 7.9665C0.00124783 7.03542 0.62576 6.29595 1.53811 6.14841C1.80203 6.10572 2.07058 6.12848 2.33694 6.12717C2.52566 6.1263 2.52615 6.12749 2.52566 5.93815C2.52566 5.4108 2.52615 4.88341 2.52444 4.35604C2.52151 2.45591 3.73562 0.779332 5.53079 0.207326C8.12722 -0.619884 10.8325 1.11829 11.1538 3.82058C11.1795 4.03632 11.1824 4.25303 11.1824 4.46994C11.1824 4.98854 11.1836 5.50715 11.1802 6.0257C11.18 6.10845 11.2053 6.1267 11.2845 6.12803C11.597 6.13335 11.9112 6.10482 12.2224 6.15606C13.002 6.28414 13.636 6.96918 13.6946 7.7571C13.7256 8.17528 13.7068 8.59469 13.7068 9.01349C13.709 10.9209 13.7119 12.8283 13.7053 14.7356C13.7027 15.5025 13.3499 16.0678 12.6599 16.4114C12.4258 16.5279 12.1729 16.5795 11.9116 16.5796C10.2244 16.5803 8.53616 16.58 6.84842 16.58V16.5795ZM6.86258 15.8586V15.858C8.52908 15.858 10.1963 15.8585 11.8633 15.8577C12.5186 15.8574 12.9849 15.394 12.9854 14.742C12.9861 12.486 12.9854 10.23 12.9866 7.97394C12.9871 7.67737 12.9043 7.40696 12.74 7.16265C12.512 6.82256 12.211 6.6169 11.7796 6.64031C11.5518 6.65265 11.3223 6.64266 11.0943 6.64266C8.00564 6.64249 4.91751 6.64266 1.82937 6.64148C1.64407 6.64142 1.47488 6.69002 1.32644 6.79754C0.946805 7.07299 0.738064 7.44957 0.728299 7.91716C0.715603 8.49115 0.724881 9.06566 0.724881 9.63991C0.724392 11.348 0.723172 13.0561 0.724392 14.7642C0.724881 15.3827 1.19778 15.857 1.81619 15.8579C3.49832 15.8601 5.17996 15.8586 6.86258 15.8586ZM6.84842 6.12554V6.12478C6.87796 6.12478 6.90701 6.12474 6.93679 6.12478C8.07864 6.12499 9.22097 6.12456 10.364 6.12688C10.4378 6.12703 10.4627 6.11055 10.4617 6.03066C10.458 5.46827 10.4595 4.9058 10.4607 4.34336C10.4617 3.95354 10.4046 3.57247 10.2815 3.20287C9.52957 0.945561 6.8677 0.00857985 4.87893 1.31586C3.86892 1.98017 3.32229 2.93979 3.25833 4.14806C3.22512 4.78492 3.25149 5.42499 3.24856 6.06356C3.24807 6.12694 3.27932 6.12601 3.32425 6.12595C4.49856 6.12542 5.67361 6.12554 6.84842 6.12554Z" fill="#E27E1C"/>
</svg>
