<svg width="16" height="15" viewBox="0 0 16 15" fill="none" xmlns="http://www.w3.org/2000/svg">
<path d="M11.7748 14.8778C10.9789 14.8545 10.2221 14.6538 9.4926 14.3514C7.17717 13.3922 5.24846 11.9141 3.66008 9.98243C2.81584 8.95484 2.08879 7.85279 1.56194 6.62647C1.27678 5.96266 1.03118 5.28614 0.94182 4.56397C0.871019 3.98927 0.871507 3.42018 1.11125 2.87586C1.22942 2.6089 1.39104 2.37208 1.59514 2.1648C1.96282 1.79176 2.32952 1.41773 2.70207 1.05006C3.04729 0.709116 3.45842 0.522837 3.95403 0.560923C4.32952 0.589853 4.64153 0.758432 4.91252 1.01185C5.16496 1.24769 5.40422 1.49635 5.6469 1.74256C5.99797 2.09962 6.35539 2.45045 6.70745 2.80702C7.05608 3.16041 7.26262 3.57337 7.21428 4.08436C7.17815 4.46339 7.00139 4.7776 6.74016 5.0453C6.43059 5.36292 6.11467 5.67555 5.79729 5.98561C5.74016 6.04103 5.73381 6.07923 5.76848 6.14894C6.01067 6.63404 6.32073 7.07301 6.66594 7.48853C7.34856 8.31019 8.11614 9.03968 9.00725 9.63429C9.19719 9.76112 9.40129 9.86073 9.601 9.96913C9.66643 10.0045 9.70354 9.99745 9.7553 9.94532C10.0585 9.63722 10.3652 9.33228 10.6733 9.02809C10.9155 8.7881 11.1972 8.61402 11.538 8.55531C12.0678 8.46388 12.5087 8.64564 12.8808 9.0149C13.3276 9.45875 13.7704 9.90699 14.2148 10.3532C14.3676 10.5065 14.5209 10.6586 14.6723 10.8131C15.3051 11.4584 15.3266 12.3265 14.7245 13.0014C14.6161 13.1229 14.4994 13.2371 14.3822 13.3511C14.1357 13.5928 13.8901 13.8345 13.6586 14.0914C13.1864 14.6146 12.5053 14.8921 11.7748 14.8778ZM1.87932 3.95606C1.87639 4.1847 1.89202 4.36219 1.91985 4.53858C2.02287 5.18104 2.23967 5.78895 2.51897 6.37123C3.95598 9.37354 6.15666 11.6348 9.1342 13.1301C9.89739 13.5132 10.6899 13.8125 11.5497 13.8969C12.143 13.955 12.6532 13.8063 13.0434 13.3286C13.1972 13.1406 13.3769 12.976 13.5507 12.8065C13.7055 12.6555 13.8622 12.5055 14.0068 12.3453C14.2592 12.0669 14.2529 11.7908 13.9999 11.5153C13.977 11.49 13.9526 11.466 13.9286 11.4419C13.349 10.8619 12.7695 10.2821 12.1894 9.70289C12.1513 9.66554 12.1117 9.62977 12.0688 9.59913C11.8964 9.47743 11.7182 9.46986 11.5346 9.57423C11.4374 9.62928 11.3593 9.7068 11.2817 9.7848C10.9384 10.1283 10.5961 10.4729 10.2509 10.8151C10.0102 11.0541 9.71379 11.1176 9.42815 10.9771C9.16692 10.8484 8.90569 10.7149 8.65813 10.5614C7.68108 9.95692 6.84416 9.18995 6.09612 8.32325C5.58049 7.72645 5.1176 7.09449 4.79973 6.36695C4.62248 5.96168 4.68303 5.6858 5.01067 5.38783C5.37053 5.06104 5.7094 4.71253 6.04778 4.3639C6.32903 4.07325 6.3217 3.81288 6.04387 3.51686C6.03313 3.50587 6.02336 3.49488 6.01164 3.48402C5.52287 2.99098 5.03459 2.4972 4.54436 2.00526C4.42668 1.88709 4.30803 1.76808 4.1801 1.66187C3.97209 1.48927 3.75481 1.48219 3.5302 1.63172C3.46721 1.67335 3.41008 1.7245 3.35637 1.7776C3.0385 2.09315 2.72991 2.41871 2.40325 2.72474C2.02971 3.0752 1.85051 3.49562 1.87932 3.95606Z" fill="#E27E1C"/>
</svg>
